<svg xmlns="http://www.w3.org/2000/svg" xmlns:xlink="http://www.w3.org/1999/xlink" width="16" zoomAndPan="magnify" viewBox="0 0 104.88 97.5" height="16" preserveAspectRatio="xMidYMid meet" version="1.0"><defs><g/><clipPath id="5160e39eb5"><path d="M 17 60 L 49 60 L 49 68 L 17 68 Z M 17 60 " clip-rule="nonzero"/></clipPath><clipPath id="fd377910d0"><path d="M 17.875 60.027344 L 48.300781 60.261719 L 48.242188 67.667969 L 17.816406 67.429688 Z M 17.875 60.027344 " clip-rule="nonzero"/></clipPath><clipPath id="d6913ca269"><path d="M 55 28 L 88 28 L 88 37 L 55 37 Z M 55 28 " clip-rule="nonzero"/></clipPath><clipPath id="7194aefec4"><path d="M 55.863281 28.519531 L 87.257812 28.765625 L 87.199219 36.167969 L 55.808594 35.925781 Z M 55.863281 28.519531 " clip-rule="nonzero"/></clipPath></defs><g clip-path="url(#5160e39eb5)"><g clip-path="url(#fd377910d0)"><path fill="#0dcaf0" d="M 17.875 60.027344 L 48.300781 60.261719 L 48.242188 67.667969 L 17.816406 67.429688 Z M 17.875 60.027344 " fill-opacity="1" fill-rule="nonzero"/></g></g><g clip-path="url(#d6913ca269)"><g clip-path="url(#7194aefec4)"><path fill="#0dcaf0" d="M 55.863281 28.519531 L 87.246094 28.765625 L 87.1875 36.167969 L 55.808594 35.925781 Z M 55.863281 28.519531 " fill-opacity="1" fill-rule="nonzero"/></g></g><g fill="#ffffff" fill-opacity="1"><g transform="translate(21.709214, 43.889982)"><g><path d="M 3.015625 0.015625 L 3.203125 -25.046875 L 19.671875 -24.90625 L 19.640625 -20.109375 L 8.828125 -20.203125 L 8.78125 -15.015625 L 18.625 -14.9375 L 18.59375 -10.171875 L 8.75 -10.25 L 8.703125 -4.765625 L 19.90625 -4.671875 L 19.875 0.15625 Z M 3.015625 0.015625 "/></g></g></g><g fill="#ffffff" fill-opacity="1"><g transform="translate(54.113987, 75.630514)"><g><path d="M 3.015625 0.015625 L 3.203125 -25.0625 L 8.03125 -25.015625 L 16.859375 -11.953125 L 25.84375 -24.875 L 30.640625 -24.84375 L 30.453125 0.234375 L 24.796875 0.1875 L 24.90625 -14.890625 L 18.75 -6.0625 L 14.8125 -6.09375 L 8.796875 -15.0625 L 8.671875 0.0625 Z M 3.015625 0.015625 "/></g></g></g></svg>